<?xml version="1.0" encoding="UTF-8"?>
<svg id="Layer_1" data-name="Layer 1" xmlns="http://www.w3.org/2000/svg" viewBox="0 0 47.6 48.04">
  <path d="M17.91,41.43c-.02,4.83.88,6.56-4.3,4.16C-7.97,35.61-1.35,2.25,22.79,1.39c24.84-.88,33.54,32.41,12.1,43.73-1.27.67-4.92,2.85-5.24.39-.44-3.33,1.07-7.58-1.38-10.37,1.47-.67,3.17-.72,4.75-1.4,4.86-2.1,6.32-7.55,5.48-12.47-.3-1.77-1.88-3.24-2.06-4.11-.14-.66.48-1.87.47-2.71,0-.51-.52-3-.78-3.36-.96-1.34-5.83,2.18-6.6,2.23s-3.01-.66-4.19-.74c-1.08-.07-2.57-.07-3.65.02-.99.08-2.96.77-3.65.72-1.05-.07-4.55-3.08-6.39-2.42-.38.09-1.02,3.02-1.03,3.53-.01.86.59,2.14.49,2.75-.06.37-1.27,1.86-1.56,2.6-1.25,3.1-.72,8.24,1.24,11s5.37,3.59,8.52,4.35c-.87.47-1.04,2.47-1.46,2.88-.33.33-2.31.66-2.87.63-3.56-.18-4.04-5.08-7.29-5.07-2.46,0,1.07,2.47,1.66,3.41.86,1.37.77,2.56,2.31,3.57.24.16,1.79.89,1.91.89h4.34Z"/>
</svg>