<svg width="779" height="140" viewBox="0 0 779 140" fill="none" xmlns="http://www.w3.org/2000/svg">
<path d="M0 0V140H778.571V0H0Z" fill="white"/>
<path d="M146.071 63.2143L145.714 62.8572L156.071 62.5L162.5 61.4286L167.5 60L173.929 60.7143L181.786 61.4286L186.429 61.7857L191.786 61.4286L196.429 60.7143L199.286 60H206.072L213.214 58.2143L217.143 57.8572H220L223.572 57.5L226.429 56.0715L230.357 58.5715L234.286 60L236.072 59.6429L238.929 58.5715L244.286 57.5L249.643 59.2857L253.214 58.2143H258.929L261.786 56.7857L266.786 56.0715L270.714 58.2143L273.572 59.2857L278.929 56.0715L281.072 55.3572L286.786 56.0715L291.429 55.3572L293.929 55H296.429L298.929 56.7857L302.5 57.5L304.286 56.0715L306.786 54.6429L308.929 55.3572L311.429 56.7857L313.572 55.3572L315.357 53.9286L317.143 55.3572L320.714 56.7857L323.572 58.5715L327.857 59.2857L328.929 60.3572L330.714 61.0715L333.214 59.2857L334.643 59.6429L339.286 60.3572L345 59.6429L347.143 57.8572L348.929 56.7857L350.714 54.2857L352.857 53.9286L354.286 52.8572L355.714 50.7143L357.857 50.3572L358.572 51.0715H360.357L362.857 50.3572L365 51.0715L366.429 51.7857L368.214 52.5L370.357 53.5715L372.5 52.8572L374.286 51.7857L375.714 51.0715L377.143 52.1429L379.286 54.2857L381.429 56.0715L383.929 55L386.429 55.3572L390 57.1429L394.286 59.6429H396.786L398.572 58.2143L401.429 57.8572L405.714 58.9286L410.714 57.8572L417.857 58.2143L421.429 56.0715L427.857 55H436.786L442.143 56.4286L445 57.8572L438.929 63.9286L438.214 63.5715L435.714 62.5L433.929 60.3572L430.357 57.5L427.5 56.7857L417.857 65L413.214 69.2857L407.857 72.5L405 71.4286L402.857 68.9286L399.286 67.5L395 68.9286L390.357 71.4286L384.286 72.5L381.429 70.3572L377.143 68.9286L373.572 66.7857L366.786 66.4286L362.143 65.7143L356.429 66.4286L351.786 66.7857L346.786 71.0715L339.286 73.2143H329.286L320.714 72.5L316.072 72.1429L312.857 71.0715L310.357 72.5L304.286 73.9286L298.572 75L293.929 77.1429L289.643 75.7143L285.714 73.2143L282.5 71.0715L279.643 70.3572L277.143 70L274.286 73.2143L272.5 75L268.929 73.9286L266.429 77.1429L260.357 79.6429L253.214 81.0715L245.357 81.4286L237.5 81.0715L231.072 80L225 81.4286L216.786 81.0715L207.857 82.1429L191.072 81.4286H181.072L175.357 79.2857L172.143 76.0715L169.286 73.9286H161.071L156.429 70.3572L152.5 66.4286L146.071 63.2143Z" fill="#8398BE"/>
<path d="M763.929 92.8571L778.929 101.429V140H0V116.429L6.78571 114.643L15.3571 112.143L21.4286 109.286L25.3571 112.143H28.5714H37.1429L47.5 106.429L54.2857 105.357L58.9286 102.143L65 97.8571H71.4286L75.7143 99.6429L86.0714 97.8571L93.9286 99.6429L104.643 97.8571L112.5 95L120 93.5714H126.786L132.143 95.7143L136.071 92.1429L138.571 89.2857H148.214L153.929 93.5714L160 89.2857L164.286 90.7143L168.571 87.8571L172.143 85L175.357 86.7857L179.286 83.5714L184.286 87.8571L188.214 89.2857L195 93.5714L198.571 92.1429L202.143 90.7143L206.071 92.1429L215.714 96.4286L225.714 101.786L230.714 100.357L240.714 97.8571H247.5L255.357 92.1429H263.214L266.786 91.4286L276.071 90.3571H285.357L293.571 88.5714L296.071 85.3571L310 81.7857L320.714 77.5L326.429 75H331.429L341.071 82.5L350.714 87.5L358.929 90.3571L361.429 91.7857L367.857 93.2143L373.214 91.7857L378.571 90.3571L382.857 94.2857L390 103.571L396.429 109.286L402.5 112.143L405.357 113.214L415.357 120L423.214 121.786L431.071 120L435 118.571L441.786 122.5H447.5L458.214 118.571L461.429 120L463.214 118.571L468.214 121.786L471.429 122.5L475.714 120H481.429L486.786 118.571L493.214 117.143L498.571 115.357H502.5L505.714 113.571L509.286 111.429L513.214 110H515.357H521.786L524.286 112.5H528.214L534.643 106.429H537.143L541.429 102.5L544.286 101.786L549.643 96.4286H552.5L561.429 93.2143L563.929 89.6429L566.071 86.7857L571.786 82.8571L575 80.3571L577.857 81.0714L581.786 77.8571L584.643 80.3571H587.143L591.429 75.7143L594.286 74.2857L602.5 75.7143L611.429 71.4286L617.5 69.6429L623.214 72.8571L628.929 67.5L632.143 66.7857L634.643 68.9286L642.857 64.6429L646.429 60.7143L648.571 60H650.714L652.5 63.9286H657.143L659.286 66.7857L663.571 63.9286L667.857 62.5L671.071 64.6429L678.214 73.9286L680.357 74.6429L693.214 67.8571L694.643 66.7857L699.643 64.6429L706.429 60.7143L713.929 62.8571L725.714 66.7857L728.929 69.6429H735.714L748.571 81.4286L763.929 92.8571Z" fill="#515662" fill-opacity="0.8"/>
<path d="M763.929 92.8571L778.929 101.429L778.571 77.5L773.214 75.7143L770.357 77.5L767.857 75H761.429L759.286 76.4286L756.786 77.5L753.929 78.2143L752.143 80.3571L749.643 82.1429L763.929 92.8571Z" fill="#455B76"/>
<path d="M563.929 89.6429L566.786 86.4286H565L561.786 85.7143L559.643 83.9286H556.429L551.071 85.7143L540.357 91.7858L531.071 96.7858L518.571 98.2143L511.071 96.7858L502.5 90.7143L494.286 83.9286L486.071 79.2858L476.429 75.0001L471.071 77.5001H467.5L462.5 75.0001L458.571 72.5001H454.286L450.714 69.2858L445 66.4286L438.214 63.5715L435.714 62.5001L433.929 60.3572L430.357 57.5001L427.5 56.7858L417.857 65.0001L413.214 69.2858L407.857 72.5001L405 71.4286L402.857 68.9286L399.286 67.5001L395 68.9286L390.357 71.4286L384.286 72.5001L381.429 70.3572L377.143 68.9286L373.571 66.7858L366.786 66.4286L362.143 65.7143L356.429 66.4286L351.786 66.7858L346.786 71.0715L339.286 73.2143H329.286L320.714 72.5001L316.071 72.1429L312.857 71.0715L310.357 72.5001L304.286 73.9286L298.571 75.0001L293.929 77.1429L289.643 75.7143L285.714 73.2143L282.5 71.0715L279.643 70.3572L277.143 70.0001L274.286 73.2143L272.5 75.0001L268.929 73.9286L266.429 77.1429L260.357 79.6429L253.214 81.0715L245.357 81.4286L237.5 81.0715L231.071 80.0001L225 81.4286L216.786 81.0715L207.857 82.1429L191.071 81.4286H181.071L175.357 79.2858L172.143 76.0715L169.286 73.9286H161.071L156.429 70.3572L152.5 66.4286L146.071 63.2143L142.143 60.0001L139.643 58.2143H136.429L132.143 57.1429L128.571 55.0001L123.214 54.2858L118.214 55.0001L114.643 60.0001L111.429 63.2143L106.786 66.4286L102.143 70.3572H97.5L92.1429 69.2858L87.5 67.8572L81.7857 65.7143L77.5 63.2143H75L72.5 63.9286L70 63.2143L66.7857 62.8572L65.3571 63.9286L62.5 65.7143L56.4286 66.4286H53.9286L51.4286 67.8572L50 67.1429L45.7143 63.9286L43.2143 61.7858H41.4286L39.6429 62.8572L35.7143 67.1429L32.5 70.0001H29.2857L25 72.5001L16.0714 72.8572L9.64286 73.5715L6.78571 74.2858H0V116.429L6.78571 114.643L15.3571 112.143L21.4286 109.286L25.3571 112.143H37.1429L47.5 106.429L54.2857 105.357L58.9286 102.143L65 97.8572H71.4286L75.7143 99.6429L86.0714 97.8572L93.9286 99.6429L104.643 97.8572L112.5 95.0001L120 93.5715H126.786L132.143 95.7143L136.071 92.1429L138.571 89.2858H148.214L153.929 93.5715L160 89.2858L164.286 90.7143L168.571 87.8572L172.143 85.0001L175.357 86.7858L179.286 83.5715L184.286 87.8572L188.214 89.2858L195 93.5715L202.143 90.7143L206.071 92.1429L215.714 96.4286L225.714 101.786L230.714 100.357L240.714 97.8572H247.5L255.357 92.1429H263.214L266.786 91.4286L276.071 90.3572H285.357L293.571 88.5715L296.071 85.3572L310 81.7858L320.714 77.5001L326.429 75.0001H331.429L341.071 82.5001L350.714 87.5001L358.929 90.3572L361.429 91.7858L367.857 93.2143L378.571 90.3572L382.857 94.2858L390 103.571L396.429 109.286L402.5 112.143L405.357 113.214L415.357 120L423.214 121.786L431.071 120L435 118.571L441.786 122.5H447.5L458.214 118.571L461.429 120L463.214 118.571L468.214 121.786L471.429 122.5L475.714 120H481.429L486.786 118.571L493.214 117.143L498.571 115.357H502.5L505.714 113.571L509.286 111.429L513.214 110H521.786L524.286 112.5H528.214L534.643 106.429H537.143L541.429 102.5L544.286 101.786L549.643 96.4286H552.5L561.429 93.2143L563.929 89.6429Z" fill="#455B76"/>
<path d="M748.572 81.4286L749.643 82.1429L752.143 80.3571L753.929 78.2143L756.786 77.5L759.286 76.4286L761.429 75H767.857L770.357 77.5L773.214 75.7143L778.572 77.5V60.3571L775 61.0714L770.357 59.2857L766.786 56.7857L755.714 56.0714H750.714L746.429 53.9286L741.072 54.6429L736.429 55.3571L730.714 52.8571H725L721.786 52.1429L719.286 51.4286L713.572 52.1429H710.714L708.572 48.5714L706.429 46.7857L702.857 47.5L700 48.5714L698.214 49.2857L695 47.5L693.214 46.7857L691.072 47.5L689.286 49.2857L687.5 50.7143L685 49.2857L682.143 46.0714L680 43.9286H678.572L675.357 46.0714L670.714 48.5714L667.5 50.7143L663.929 51.4286L660.714 52.1429L658.572 50.7143H651.429L646.072 50L641.429 47.1429L637.5 43.9286L633.929 44.2857L631.072 43.9286L628.214 42.1429L626.429 40.7143L623.572 42.1429L621.072 44.2857L617.857 46.0714L612.857 46.7857L604.286 46.0714L596.072 45L592.5 44.2857L587.143 40.7143L582.143 37.1429L574.643 34.6429L570.714 34.2857L566.429 32.5L561.786 33.5714L560.357 34.6429L558.572 34.2857L553.572 38.2143H551.429L547.143 40.7143L545.714 41.7857L540.714 40.7143L537.5 39.6429L535 37.5L532.5 38.9286H528.929L523.214 45H521.072L518.929 47.5H513.929L509.286 46.4286H502.857L500 45.7143L498.214 44.2857H493.929L488.929 43.2143L485 41.7857H480.357L475.714 40.7143L472.5 43.9286L466.429 48.5714L463.929 50.7143H460.357L457.143 52.1429L452.143 54.6429L447.143 56.7857L445 57.8571L438.962 63.8867L445 66.4286L450.714 69.2857L454.286 72.5H458.572L462.5 75L467.5 77.5H471.072L476.429 75L486.072 79.2857L494.286 83.9286L502.5 90.7143L511.072 96.7857L518.572 98.2143L531.072 96.7857L540.357 91.7857L551.072 85.7143L556.429 83.9286H559.643L561.786 85.7143L565 86.4286L566.786 86.2946L571.786 82.8571L575 80.3571L577.857 81.0714L581.786 77.8571L584.643 80.3571H587.143L591.429 75.7143L594.286 74.2857L602.5 75.7143L611.429 71.4286L617.5 69.6429L623.214 72.8571L628.929 67.5L632.143 66.7857L634.643 68.9286L642.857 64.6429L646.429 60.7143L648.572 60H650.714L652.5 63.9286H657.143L659.286 66.7857L663.572 63.9286L667.857 62.5L671.072 64.6429L678.214 73.9286L680.357 74.6429L693.214 67.8571L694.643 66.7857L699.643 64.6429L706.429 60.7143L713.929 62.8571L725.714 66.7857L728.929 69.6429H735.714L748.572 81.4286Z" fill="#9598BD"/>
</svg>
