<?xml version="1.0" encoding="UTF-8"?>
<svg id="Layer_1" data-name="Layer 1" xmlns="http://www.w3.org/2000/svg" viewBox="0 0 47.6 48.04">
  <defs>
    <style>
      .cls-1 {
        fill: #fff;
      }
    </style>
  </defs>
  <g id="NnOCYo">
    <g>
      <path d="M44.53,45.23c-.58.46-1.24.55-1.95.65H5.09c-2.01-.05-3.11-1.34-3.22-3.28V5.31c.11-1.89,1.32-3.09,3.22-3.15h37.28c1.76-.05,3.09,1.16,3.35,2.87l-.05,38.4c-.32.63-.59,1.34-1.15,1.79ZM9.53,15.05c1.74,1.18,4.22.7,5.34-1.17,2.13-3.56-2.26-7.51-5.56-5-2.18,1.66-2.02,4.66.22,6.18ZM25.19,21.01v-2.28s-.16-.17-.17-.17h-5.95l-.1.1v20.68c0,.06.22.2.31.18,1.85-.17,4.09.22,5.89,0,.29-.04.29-.26.31-.52.29-3.53-.27-7.46,0-11,.05-.7.42-2.18.77-2.75.61-.99,1.74-1.37,2.86-1.43,3.61-.18,3.57,2.99,3.64,5.71.08,3.28-.09,6.58.03,9.86l.27.14c1.86-.15,3.99.18,5.82,0,.16-.02.3,0,.36-.19,0-4.81.09-9.63-.06-14.44-.34-2.89-1.89-6.07-5.04-6.64-3.47-.63-5.77-.35-8.26,2.26-.07.07-.08.21-.14.27-.12.11-.38.09-.38.35-.02.02-.13-.08-.14-.1ZM8.57,18.57l-.22.12v20.47s.13.28.13.28l6.22.05c.21-.06.23-.45.26-.64l-.02-20.11-.12-.15-6.24-.02Z"/>
      <path class="cls-1" d="M25.19,21.01s.11.12.14.1c0-.26.26-.23.38-.35.07-.06.07-.2.14-.27,2.49-2.6,4.79-2.89,8.26-2.26,3.15.58,4.71,3.75,5.04,6.64.15,4.81.05,9.63.06,14.44-.07.19-.2.17-.36.19-1.83.18-3.95-.15-5.82,0l-.27-.14c-.12-3.28.05-6.57-.03-9.86-.07-2.71-.03-5.88-3.64-5.71-1.12.06-2.25.44-2.86,1.43-.36.58-.72,2.05-.77,2.75-.27,3.54.29,7.47,0,11-.02.26-.02.48-.31.52-1.8.22-4.04-.18-5.89,0-.09.03-.31-.12-.31-.18v-20.68l.1-.1h5.95s.17.16.17.17v2.28Z"/>
      <path class="cls-1" d="M8.57,18.57l6.24.02.12.15.02,20.11c-.02.19-.04.58-.26.64l-6.22-.05-.14-.28v-20.47s.23-.12.23-.12Z"/>
      <path class="cls-1" d="M9.53,15.05c-2.24-1.52-2.4-4.52-.22-6.18,3.29-2.51,7.68,1.44,5.56,5-1.12,1.87-3.6,2.36-5.34,1.17Z"/>
    </g>
  </g>
</svg>