<?xml version="1.0" encoding="UTF-8"?>
<svg id="Layer_1" data-name="Layer 1" xmlns="http://www.w3.org/2000/svg" viewBox="0 0 47.6 48.04">
  <defs>
    <style>
      .cls-1 {
        fill: #fff;
      }
    </style>
  </defs>
  <g id="j5C6f8">
    <g>
      <path d="M25.58.69l4.77.93c7.48,2.09,13.86,8.54,15.9,16.02l.89,4.61v3.52l-.93,4.77c-2.09,7.49-8.53,13.87-16.01,15.91l-4.6.89h-3.52l-4.6-.89c-7.48-2.04-13.93-8.42-16.01-15.91l-.93-4.77c.07-1.16-.09-2.38,0-3.52C1.4,10.91,10.73,1.59,22.05.69h3.52ZM14.33,9.24c-2.25.5-1.59,4.21.94,3.65,2.25-.5,1.59-4.21-.94-3.65ZM16.25,15c-.92.13-2.18-.32-2.9.31v19.39h2.9V15ZM20.4,34.7h8.81c2.06,0,5.38-1.87,6.73-3.43,5.41-6.26.97-16.27-7.35-16.27h-8.19v19.7Z"/>
      <path class="cls-1" d="M20.4,34.7V15h8.19c8.32,0,12.76,10.01,7.35,16.27-1.35,1.56-4.67,3.43-6.73,3.43h-8.81ZM23.09,32h6.53c.27,0,2.02-.75,2.37-.95,4.06-2.35,4.61-8.78.95-11.71-.75-.6-2.83-1.65-3.74-1.65h-6.11v14.31Z"/>
      <path class="cls-1" d="M16.25,15v19.7h-2.9V15.31c.72-.64,1.98-.18,2.9-.31Z"/>
      <path class="cls-1" d="M14.33,9.24c2.53-.56,3.2,3.15.94,3.65-2.53.56-3.2-3.15-.94-3.65Z"/>
      <path d="M23.09,32v-14.31h6.11c.9,0,2.99,1.05,3.74,1.65,3.65,2.93,3.11,9.36-.95,11.71-.35.2-2.1.95-2.37.95h-6.53Z"/>
    </g>
  </g>
</svg>